<svg width="160" height="50" viewBox="0 0 160 50" fill="none" xmlns="http://www.w3.org/2000/svg">
<path d="M54 44.46V36.76H56.651C57.2597 36.76 57.7583 36.8627 58.147 37.068C58.543 37.2733 58.8363 37.552 59.027 37.904C59.2177 38.2487 59.313 38.6337 59.313 39.059C59.313 39.5357 59.1847 39.9683 58.928 40.357C58.6787 40.7457 58.2863 41.0243 57.751 41.193L59.39 44.46H58.037L56.541 41.358H55.166V44.46H54ZM55.166 40.478H56.585C57.113 40.478 57.498 40.3497 57.74 40.093C57.9893 39.8363 58.114 39.5027 58.114 39.092C58.114 38.6813 57.993 38.355 57.751 38.113C57.509 37.8637 57.1167 37.739 56.574 37.739H55.166V40.478Z" fill="#E4C590"/>
<path d="M64.6524 44.46V36.76H69.5474V37.706H65.8184V40.104H69.2174V41.028H65.8184V43.514H69.5474V44.46H64.6524Z" fill="#E4C590"/>
<path d="M77.4376 44.592C76.8729 44.592 76.3779 44.493 75.9526 44.295C75.5272 44.097 75.1936 43.8147 74.9516 43.448C74.7169 43.0813 74.5959 42.645 74.5886 42.139H75.8206C75.8279 42.5497 75.9709 42.898 76.2496 43.184C76.5282 43.47 76.9206 43.613 77.4266 43.613C77.8739 43.613 78.2222 43.5067 78.4716 43.294C78.7282 43.074 78.8566 42.7953 78.8566 42.458C78.8566 42.1867 78.7942 41.9667 78.6696 41.798C78.5522 41.6293 78.3872 41.49 78.1746 41.38C77.9692 41.27 77.7309 41.171 77.4596 41.083C77.1882 40.995 76.9022 40.8997 76.6016 40.797C76.0076 40.599 75.5602 40.3423 75.2596 40.027C74.9662 39.7117 74.8196 39.2973 74.8196 38.784C74.8122 38.3513 74.9112 37.9737 75.1166 37.651C75.3292 37.3283 75.6226 37.079 75.9966 36.903C76.3779 36.7197 76.8216 36.628 77.3276 36.628C77.8262 36.628 78.2626 36.7197 78.6366 36.903C79.0179 37.0863 79.3149 37.343 79.5276 37.673C79.7402 37.9957 79.8502 38.3733 79.8576 38.806H78.6256C78.6256 38.608 78.5742 38.421 78.4716 38.245C78.3689 38.0617 78.2186 37.9113 78.0206 37.794C77.8226 37.6767 77.5806 37.618 77.2946 37.618C76.9279 37.6107 76.6236 37.7023 76.3816 37.893C76.1469 38.0837 76.0296 38.3477 76.0296 38.685C76.0296 38.9857 76.1176 39.2167 76.2936 39.378C76.4696 39.5393 76.7116 39.675 77.0196 39.785C77.3276 39.8877 77.6796 40.0087 78.0756 40.148C78.4569 40.2727 78.7979 40.423 79.0986 40.599C79.3992 40.775 79.6376 41.006 79.8136 41.292C79.9969 41.578 80.0886 41.941 80.0886 42.381C80.0886 42.7697 79.9896 43.1327 79.7916 43.47C79.5936 43.8 79.2966 44.0713 78.9006 44.284C78.5046 44.4893 78.0169 44.592 77.4376 44.592Z" fill="#E4C590"/>
<path d="M86.9877 44.46V37.706H84.7107V36.76H90.4197V37.706H88.1537V44.46H86.9877Z" fill="#E4C590"/>
<path d="M94.138 44.46L96.976 36.76H98.252L101.068 44.46H99.836L99.176 42.579H96.03L95.37 44.46H94.138ZM96.36 41.655H98.846L97.603 38.146L96.36 41.655Z" fill="#E4C590"/>
<path d="M108.651 44.592C108.101 44.592 107.602 44.4857 107.155 44.273C106.715 44.053 106.363 43.7193 106.099 43.272C105.842 42.8247 105.714 42.2563 105.714 41.567V36.76H106.88V41.578C106.88 42.2527 107.041 42.7477 107.364 43.063C107.686 43.3783 108.123 43.536 108.673 43.536C109.215 43.536 109.648 43.3783 109.971 43.063C110.293 42.7477 110.455 42.2527 110.455 41.578V36.76H111.621V41.567C111.621 42.2563 111.485 42.8247 111.214 43.272C110.95 43.7193 110.59 44.053 110.136 44.273C109.688 44.4857 109.193 44.592 108.651 44.592Z" fill="#E4C590"/>
<path d="M117.076 44.46V36.76H119.727C120.336 36.76 120.835 36.8627 121.223 37.068C121.619 37.2733 121.913 37.552 122.103 37.904C122.294 38.2487 122.389 38.6337 122.389 39.059C122.389 39.5357 122.261 39.9683 122.004 40.357C121.755 40.7457 121.363 41.0243 120.827 41.193L122.466 44.46H121.113L119.617 41.358H118.242V44.46H117.076ZM118.242 40.478H119.661C120.189 40.478 120.574 40.3497 120.816 40.093C121.066 39.8363 121.19 39.5027 121.19 39.092C121.19 38.6813 121.069 38.355 120.827 38.113C120.585 37.8637 120.193 37.739 119.65 37.739H118.242V40.478Z" fill="#E4C590"/>
<path d="M127.234 44.46L130.072 36.76H131.348L134.164 44.46H132.932L132.272 42.579H129.126L128.466 44.46H127.234ZM129.456 41.655H131.942L130.699 38.146L129.456 41.655Z" fill="#E4C590"/>
<path d="M139.198 44.46V36.76H140.364L144.225 42.557V36.76H145.391V44.46H144.225L140.364 38.663V44.46H139.198Z" fill="#E4C590"/>
<path d="M152.717 44.46V37.706H150.44V36.76H156.149V37.706H153.883V44.46H152.717Z" fill="#E4C590"/>
<path fill-rule="evenodd" clip-rule="evenodd" d="M32.5132 42.597C29.684 44.1297 26.4436 45 23 45C11.9543 45 3 36.0457 3 25C3 13.9543 11.9543 5 23 5C26.0521 5 28.9446 5.68368 31.5326 6.90625C31.3663 7.11885 31.209 7.34319 31.0619 7.57929C30.37 8.68974 29.8253 10.0318 29.47 11.4633C27.5111 10.5253 25.3169 10 23 10C14.7157 10 8 16.7157 8 25C8 33.2843 14.7157 40 23 40C27.2915 40 31.162 38.1978 33.8961 35.309C33.5961 36.4152 33.1892 37.6031 32.6373 38.9318C32.2262 39.809 32.1122 40.4488 32.1122 41.4602C32.1122 41.8663 32.2596 42.247 32.5132 42.597ZM29.0138 14.6134C28.8567 18.2765 30.0306 21.8663 33.1625 23.2555C34.135 24.128 34.7379 25.2124 34.7379 26.6199C34.7379 26.9224 34.7379 27.2186 34.7371 27.5099C33.5832 32.9324 28.7666 37 23 37C16.3726 37 11 31.6274 11 25C11 18.3726 16.3726 13 23 13C25.1914 13 27.2456 13.5874 29.0138 14.6134Z" fill="#E4C590"/>
<path d="M41.7607 22.8781C46.7982 20.5576 46.5779 13.151 43.8104 8.53905C40.9996 3.85445 36.7943 3.78631 33.9427 8.53905C31.1901 13.126 30.9363 20.5491 35.9923 22.8781C36.9183 23.7408 37.6263 25.4349 37.6263 26.8266C37.6263 31.0162 37.8838 34.3087 35.7001 39.1394C35.3086 40.0068 35.1257 40.6631 35.1257 41.2062C35.1257 43.2981 36.8081 45 38.8765 45C40.9449 45 42.6273 43.2981 42.6273 41.2062C42.6273 40.6631 42.4445 40.0068 42.053 39.1394C39.8389 34.2417 40.1268 30.7222 40.1268 26.8266C40.1268 25.4349 40.8348 23.7408 41.7607 22.8781Z" fill="#E4C590"/>
<g style="mix-blend-mode:multiply">
<path d="M63.7614 29V14.4545H65.5227V21.6705H65.6932L72.2273 14.4545H74.5284L68.4205 21.017L74.5284 29H72.3977L67.3409 22.2386L65.5227 24.2841V29H63.7614ZM76.8082 29V14.4545H78.5696V20.9318H86.3253V14.4545H88.0866V29H86.3253V22.4943H78.5696V29H76.8082ZM92.2095 29H90.3629L95.7038 14.4545H97.522L102.863 29H101.016L96.6697 16.7557H96.5561L92.2095 29ZM92.8913 23.3182H100.335V24.8807H92.8913V23.3182ZM116.663 14.4545V29H114.958L107.032 17.5795H106.89V29H105.129V14.4545H106.833L114.788 25.9034H114.93V14.4545H116.663ZM120.784 29H118.937L124.278 14.4545H126.096L131.437 29H129.591L125.244 16.7557H125.13L120.784 29ZM121.466 23.3182H128.909V24.8807H121.466V23.3182ZM135.691 14.4545L135.549 24.9091H133.902L133.76 14.4545H135.691ZM134.725 29.1136C134.375 29.1136 134.074 28.9882 133.824 28.7372C133.573 28.4863 133.447 28.1856 133.447 27.8352C133.447 27.4848 133.573 27.1842 133.824 26.9332C134.074 26.6823 134.375 26.5568 134.725 26.5568C135.076 26.5568 135.377 26.6823 135.627 26.9332C135.878 27.1842 136.004 27.4848 136.004 27.8352C136.004 28.0672 135.945 28.2803 135.826 28.4744C135.713 28.6686 135.559 28.8248 135.365 28.9432C135.175 29.0568 134.962 29.1136 134.725 29.1136Z" fill="white"/>
</g>
</svg>
